<?xml version="1.0" standalone="no"?>
<!DOCTYPE svg PUBLIC "-//W3C//DTD SVG 20010904//EN"
 "http://www.w3.org/TR/2001/REC-SVG-20010904/DTD/svg10.dtd">
<svg version="1.0" xmlns="http://www.w3.org/2000/svg"
 width="576.000000pt" height="293.000000pt" viewBox="0 0 576.000000 293.000000"
 preserveAspectRatio="xMidYMid meet">

<g transform="translate(0.000000,293.000000) scale(0.100000,-0.100000)"
fill="#000000" stroke="none">
<path d="M1830 2555 c0 -162 3 -235 11 -235 10 0 226 122 352 199 l62 38 3
116 3 117 -216 0 -215 0 0 -235z"/>
<path d="M2652 2633 c-50 -32 -332 -213 -626 -403 -502 -324 -534 -347 -529
-370 3 -14 14 -40 25 -59 15 -27 17 -36 6 -42 -10 -6 -8 -9 6 -9 39 0 61 -65
31 -90 -8 -7 -15 -29 -15 -49 0 -31 8 -44 52 -86 29 -28 45 -41 37 -30 -7 11
-29 34 -46 51 -38 35 -41 60 -14 109 l18 34 13 -23 c9 -18 24 -26 56 -31 24
-3 50 -3 56 1 7 4 236 146 509 315 272 170 509 312 527 315 17 3 44 2 60 -4
25 -9 377 -231 817 -516 179 -117 178 -116 232 -116 34 0 55 5 63 16 8 8 21
19 29 24 30 15 17 -38 -17 -73 -17 -17 -33 -45 -37 -62 -6 -27 -5 -28 6 -10 6
11 30 39 52 62 43 45 51 84 27 129 -17 31 6 78 41 82 33 4 53 -20 73 -89 29
-104 68 -124 181 -94 l50 13 -55 -6 c-121 -14 -140 -3 -170 99 -13 43 -29 74
-43 84 -14 9 -26 33 -32 63 l-11 47 -608 388 c-481 306 -615 387 -640 387 -23
0 -61 -18 -124 -57z"/>
<path d="M2300 1876 l-455 -293 -5 -264 -5 -264 -71 68 -71 67 23 48 c28 56
23 86 -17 102 -21 9 -29 19 -29 39 -1 28 -11 17 -24 -26 -6 -19 -3 -22 25 -25
69 -7 63 -67 -15 -145 -44 -44 -59 -53 -88 -53 -20 0 -41 7 -48 15 -11 13 -9
20 10 40 27 29 8 35 -22 8 -11 -10 -45 -19 -86 -23 l-67 -7 61 -2 c48 -1 65
-5 80 -22 14 -15 29 -20 64 -18 44 2 47 0 136 -87 50 -49 105 -99 122 -112
l32 -24 0 -179 0 -179 -85 0 -85 0 0 -105 0 -105 328 0 329 0 6 167 c4 91 7
212 7 268 l0 101 43 41 c138 134 448 183 636 100 66 -29 152 -89 179 -125 21
-30 22 -37 22 -292 l0 -260 315 0 315 0 0 100 0 100 -62 0 -63 0 -3 172 -2
172 38 40 c55 57 132 162 162 219 21 41 28 47 48 42 15 -4 37 2 60 17 23 14
48 21 72 19 53 -3 174 26 268 66 45 20 81 38 79 40 -3 2 -53 -15 -113 -38
-140 -53 -234 -63 -290 -30 -42 25 -61 19 -25 -8 l24 -18 -24 -17 c-13 -9 -29
-16 -36 -16 -71 0 -180 141 -143 185 16 19 54 19 70 0 24 -29 30 -3 6 28 -14
18 -26 48 -29 67 -3 30 -4 28 -5 -12 -2 -42 -6 -49 -32 -63 -35 -18 -40 -54
-14 -108 15 -32 15 -36 -6 -78 -26 -51 -90 -139 -102 -139 -4 0 -9 111 -10
247 l-3 246 -470 304 c-258 166 -476 303 -485 302 -8 0 -220 -132 -470 -293z
m546 23 c36 -13 94 -70 116 -113 28 -55 28 -147 0 -203 -68 -133 -228 -167
-335 -72 -189 166 -14 475 219 388z m-627 -311 c5 -15 2 -27 -11 -40 -10 -10
-18 -23 -18 -28 0 -19 165 -133 255 -176 180 -86 341 -103 513 -55 119 33 298
129 365 197 35 35 37 41 31 80 -5 37 -3 44 16 54 20 11 26 7 61 -29 24 -24 49
-41 62 -41 13 0 28 -5 35 -12 31 -31 -4 -71 -59 -67 -31 3 -45 -3 -81 -33 -82
-69 -103 -85 -163 -120 -155 -92 -281 -128 -450 -128 -219 0 -410 75 -596 233
-52 44 -70 54 -91 50 -14 -3 -35 0 -47 6 -39 21 -20 71 27 71 14 0 39 16 63
40 34 34 43 39 60 29 11 -5 24 -20 28 -31z"/>
<path d="M1472 1748 c-7 -7 -12 -22 -12 -35 0 -13 -7 -40 -15 -60 -8 -20 -14
-38 -11 -40 5 -5 36 74 36 92 0 8 9 24 20 35 13 13 15 20 7 20 -7 0 -18 -5
-25 -12z"/>
<path d="M4440 1643 c19 -3 42 -10 50 -16 13 -10 13 -10 1 6 -9 11 -26 16 -50
15 l-36 -1 35 -4z"/>
<path d="M4348 1633 c6 -2 18 -2 25 0 6 3 1 5 -13 5 -14 0 -19 -2 -12 -5z"/>
<path d="M1037 1582 c-9 -10 -14 -27 -11 -39 3 -11 1 -24 -5 -27 -20 -13 -12
-27 8 -16 29 15 72 12 143 -10 74 -23 68 -22 68 -11 0 12 -86 41 -148 49 -52
8 -69 35 -36 59 10 7 13 13 7 13 -5 0 -17 -8 -26 -18z"/>
<path d="M1155 1591 c22 -4 56 -11 75 -15 25 -5 31 -4 19 3 -9 6 -43 13 -75
15 -47 4 -51 4 -19 -3z"/>
<path d="M4490 1580 c0 -5 -15 -10 -33 -10 -37 0 -137 -27 -151 -41 -15 -14
16 -11 65 7 24 8 63 16 87 16 34 1 42 5 42 20 0 10 -2 18 -5 18 -3 0 -5 -4 -5
-10z"/>
<path d="M1273 1564 c3 -3 26 -6 52 -6 26 0 49 3 53 6 3 3 -21 6 -53 6 -32 0
-56 -3 -52 -6z"/>
<path d="M4522 1499 c-12 -18 -20 -20 -76 -14 -64 7 -136 -11 -136 -34 0 -14
2 -14 36 4 38 19 133 20 161 0 20 -14 21 -13 26 23 5 45 5 46 -11 21z"/>
<path d="M1003 1450 c2 -19 0 -45 -6 -58 -8 -18 -7 -29 3 -45 7 -12 16 -35 19
-51 5 -24 15 -31 61 -46 30 -10 81 -29 112 -43 31 -15 81 -29 110 -32 l53 -5
-50 14 c-27 7 -88 30 -135 50 -47 19 -93 36 -102 36 -26 0 -41 35 -23 50 16
13 111 9 148 -5 10 -4 17 -3 17 4 0 17 -81 34 -137 28 -37 -4 -55 -2 -63 8
-14 16 1 49 26 59 29 11 139 5 164 -9 29 -17 40 -18 40 -6 0 22 -72 42 -143
40 -67 -2 -73 -1 -85 22 -13 23 -13 23 -9 -11z"/>
<path d="M1658 1443 c5 -21 7 -23 10 -9 2 10 0 22 -6 28 -6 6 -7 0 -4 -19z"/>
<path d="M4363 1388 c-18 -6 -33 -15 -33 -21 0 -5 9 -6 23 -2 12 4 48 10 79
12 53 4 59 3 66 -18 9 -22 9 -22 19 7 l10 29 -66 2 c-36 1 -81 -3 -98 -9z"/>
</g>
</svg>
